HIERARCHY
ROOT Hips
{
	OFFSET 0.000000 0.000000 0.000000
	CHANNELS 6 Xposition Yposition Zposition Zrotation Yrotation Xrotation 
	JOINT LHipJoint
	{
		OFFSET 0.000000 0.000000 0.000000
		CHANNELS 3 Zrotation Yrotation Xrotation
		JOINT LeftUpLeg
		{
			OFFSET 1.363060 -1.794630 0.839290
			CHANNELS 3 Zrotation Yrotation Xrotation
			JOINT LeftLeg
			{
				OFFSET 2.448110 -6.726130 0.000000
				CHANNELS 3 Zrotation Yrotation Xrotation
				JOINT LeftFoot
				{
					OFFSET 2.562200 -7.039590 0.000000
					CHANNELS 3 Zrotation Yrotation Xrotation
					JOINT LeftToeBase
					{
						OFFSET 0.157640 -0.433110 2.322550
						CHANNELS 3 Zrotation Yrotation Xrotation
						End Site
						{
							OFFSET 0.000000 0.000000 0.000000
						}
					}
				}
			}
		}
	}
	JOINT RHipJoint
	{
		OFFSET 0.000000 0.000000 0.000000
		CHANNELS 3 Zrotation Yrotation Xrotation
		JOINT RightUpLeg
		{
			OFFSET -1.305520 -1.794630 0.839290
			CHANNELS 3 Zrotation Yrotation Xrotation
			JOINT RightLeg
			{
				OFFSET -2.542530 -6.985550 0.000000
				CHANNELS 3 Zrotation Yrotation Xrotation
				JOINT RightFoot
				{
					OFFSET -2.568260 -7.056230 0.000000
					CHANNELS 3 Zrotation Yrotation Xrotation
					JOINT RightToeBase
					{
						OFFSET -0.164730 -0.452590 2.363150
						CHANNELS 3 Zrotation Yrotation Xrotation
						End Site
						{
							OFFSET 0.000000 0.000000 0.000000
						}
					}
				}
			}
		}
	}
}
MOTION
Frames: 30
Frame Time: 0.008333
-2.360184 16.506553 1.560836 -116.059898 79.800026 -102.513551 -10.507046 0.695451 3.061708 -21.050028 0.637398 -37.636380 -2.518643 -0.419817 20.062997 1.868348 6.550553 -13.622716 179.294400 0.000000 -12.091900 9.240815 -5.491612 -2.113856 11.319639 -19.418924 -12.448697 1.567384 -3.547242 45.674806 1.110380 23.521099 12.562294 7.074000 -0.000000 -78.891900
-2.196161 16.411662 1.530206 -115.028140 79.897996 -101.626526 -10.459961 0.655687 3.205590 -20.819802 -0.588799 -38.435800 -2.308716 -0.139695 23.575366 2.136499 7.462167 -15.280198 178.950600 0.000000 -16.093501 9.458994 -5.356373 -2.189146 10.421458 -19.546686 -14.174609 1.109673 -3.756559 49.806454 0.949856 22.626743 13.652065 7.295200 -0.000000 -80.082500
-2.040616 16.325281 1.496215 -114.200102 80.060924 -100.919482 -10.410174 0.614388 3.290583 -20.740305 -1.682799 -39.159829 -2.120231 0.128529 26.942220 2.383201 8.319669 -16.827603 178.584000 -0.000000 -18.872600 9.662631 -5.159291 -2.247885 9.536809 -19.353225 -15.972646 0.640919 -3.947219 53.898052 0.770483 20.749556 14.494875 7.073600 0.000000 -80.656200
-1.893929 16.249479 1.458343 -113.623091 80.277059 -100.445450 -10.358018 0.572804 3.317463 -20.806836 -2.639935 -39.711233 -1.958287 0.367011 29.970452 2.613914 9.152991 -18.261854 178.198800 -0.000000 -20.652000 9.848983 -4.902315 -2.291292 8.672626 -18.842541 -17.812292 0.172490 -4.121485 57.899136 0.564026 17.992573 14.998825 6.392700 -0.000000 -80.354600
-1.755970 16.185789 1.416225 -113.355077 80.528313 -100.263092 -10.305844 0.531410 3.291647 -20.995486 -3.467557 -40.030648 -1.826224 0.565137 32.533204 2.833786 9.976447 -19.593944 177.796000 0.000000 -21.708700 10.013481 -4.592284 -2.316524 7.845244 -18.025154 -19.667949 -0.284322 -4.280670 61.753379 0.320570 14.537031 15.105434 5.319500 -0.000000 -79.015700
-1.626040 16.135070 1.369416 -113.452381 80.789789 -100.428632 -10.256921 0.490660 3.221469 -21.272485 -4.180681 -40.083198 -1.724365 0.717876 34.557437 3.044492 10.790308 -20.818620 177.381000 0.000000 -22.182000 10.153060 -4.239988 -2.319087 7.067325 -16.922576 -21.515442 -0.719078 -4.425430 65.403901 0.033820 10.625514 14.799096 3.986500 -0.000000 -76.577800
-1.503070 16.097522 1.317546 -113.971491 81.031835 -100.999965 -10.216422 0.449899 3.116806 -21.594259 -4.794777 -39.856727 -1.651245 0.824086 36.016272 3.242680 11.573594 -21.923507 176.965199 0.000000 -22.204600 10.264327 -3.860048 -2.294140 6.353169 -15.566083 -23.328670 -1.122881 -4.555446 68.790376 -0.294332 6.523646 14.109894 2.555100 0.000000 -73.141200
-1.385512 16.072778 1.260350 -114.963426 81.221161 -102.029766 -10.189884 0.408468 2.988523 -21.914849 -5.324463 -39.354564 -1.604093 0.885119 36.917317 3.420450 12.288439 -22.888244 176.568000 0.000001 -21.904300 10.344784 -3.469300 -2.238028 5.714538 -13.997058 -25.080506 -1.488858 -4.669578 71.855923 -0.651458 2.489695 13.099008 1.178300 -0.000000 -68.853000
-1.271689 16.059975 1.197701 -116.465618 81.324542 -103.558139 -10.181427 0.366465 2.848235 -22.193271 -5.785258 -38.591926 -1.579441 0.904181 37.293948 3.567041 12.886772 -23.688505 176.215000 0.000000 -21.406600 10.393229 -3.083858 -2.149086 5.159279 -12.265858 -26.745216 -1.811833 -4.765467 74.545669 -1.017424 -1.260309 11.856011 -0.025600 -0.000000 -64.111800
-1.159760 16.058021 1.129635 -118.494211 81.311617 -105.603427 -10.192362 0.325304 2.708119 -22.398325 -6.195047 -37.592115 -1.573568 0.885730 37.196666 3.671448 13.319961 -24.301974 175.933700 -0.000000 -20.858400 10.410793 -2.717624 -2.028840 4.688120 -10.431743 -28.302790 -2.087863 -4.841540 76.823305 -1.366341 -4.554996 10.448625 -0.982401 -0.000000 -59.048900
-1.048039 16.065643 1.056352 -121.031692 81.153492 -108.147266 -10.222523 0.287025 2.581087 -22.507633 -6.575752 -36.387888 -1.582231 0.835381 36.690935 3.724237 13.546277 -24.711353 175.748900 0.000000 -20.380300 10.398980 -2.381092 -1.880358 4.302193 -8.555925 -29.740662 -2.313433 -4.896017 78.661224 -1.674908 -7.289154 8.943297 -1.662500 0.000000 -53.959800
-0.935028 16.081493 0.978101 -124.021242 80.824285 -111.128227 -10.270000 0.253942 2.480178 -22.508949 -6.953813 -35.020429 -1.600831 0.759504 35.851266 3.719389 13.538762 -24.905687 175.678100 0.000000 -20.055300 10.360173 -2.080647 -1.707820 4.000327 -6.698715 -31.057577 -2.485528 -4.928019 80.047048 -1.926028 -9.416078 7.393959 -2.073400 -0.000000 -49.113000
-0.819604 16.104382 0.895273 -127.375279 80.302924 -114.451175 -10.331692 0.228438 2.417674 -22.400875 -7.359398 -33.532793 -1.624843 0.664565 34.752915 3.655583 13.290618 -24.882969 175.726900 0.000000 -19.928000 10.297402 -1.819194 -1.516866 3.776971 -4.919167 -32.261212 -2.602107 -4.938333 80.985684 -2.109919 -10.935818 5.830598 -2.246000 0.000000 -44.551400
-0.701138 16.133321 0.808212 -130.979196 79.570659 -117.990746 -10.404876 0.212123 2.404439 -22.188139 -7.823862 -31.972317 -1.649639 0.557077 33.471325 3.535703 12.813981 -24.647509 175.890000 0.000001 -19.977500 10.212952 -1.596233 -1.312353 3.626556 -3.266777 -33.368526 -2.662681 -4.927869 81.490461 -2.226753 -11.900092 4.298328 -2.233200 -0.000000 -40.425900
-0.579453 16.167403 0.717252 -134.707065 78.611799 -121.607960 -10.487350 0.205817 2.448778 -21.879829 -8.376322 -30.386160 -1.671004 0.443053 32.076478 3.366534 12.137596 -24.211716 176.150900 0.000000 -20.149000 10.108561 -1.408502 -1.098551 3.541532 -1.780563 -34.402946 -2.669304 -4.897651 81.583846 -2.285257 -12.402096 2.857683 -2.100400 -0.000000 -36.919400
-0.454831 16.206063 0.622849 -138.440657 77.416851 -125.172446 -10.577470 0.209794 2.555367 -21.486840 -9.039719 -28.817335 -1.685498 0.327883 30.629028 3.157569 11.302032 -23.593186 176.486400 -0.000000 -20.366000 9.985544 -1.250763 -0.879171 3.513708 -0.486666 -35.389010 -2.627196 -4.848443 81.294484 -2.300722 -12.565348 1.581443 -1.914900 0.000000 -34.240900
-0.328028 16.248847 0.525198 -142.068858 75.978484 -128.565064 -10.674922 0.223755 2.724988 -21.020188 -9.827834 -27.300570 -1.690189 0.216032 29.178114 2.919555 10.353771 -22.811904 176.870400 0.000000 -20.540800 9.844583 -1.117418 -0.657511 3.535054 0.601378 -36.347861 -2.544311 -4.780910 80.655146 -2.291954 -12.527511 0.539639 -1.734200 0.000000 -32.568201
-0.200077 16.295384 0.424567 -145.508568 74.298112 -131.699783 -10.779417 0.247145 2.953880 -20.489800 -10.743747 -25.860574 -1.683150 0.111205 27.760570 2.663300 9.339515 -21.888284 177.277500 -0.000000 -20.598101 9.686878 -1.003016 -0.437358 3.597451 1.481148 -37.295093 -2.430315 -4.696457 79.703734 -2.277626 -12.420006 -0.229560 -1.596100 0.000000 -31.911801
-0.072227 16.345365 0.321278 -148.705992 72.384916 -134.525497 -10.890569 0.279205 3.234215 -19.905341 -11.780806 -24.509769 -1.663305 0.016290 26.401122 2.398957 8.303131 -20.841935 177.686000 0.000000 -20.502600 9.514168 -0.903430 -0.223264 3.692621 2.159214 -38.236248 -2.294464 -4.597486 78.479713 -2.273336 -12.350903 -0.733307 -1.517700 -0.000000 -32.066000
0.054208 16.398489 0.215527 -151.626849 70.254864 -137.018818 -11.008385 0.318923 3.554689 -19.275955 -12.922853 -23.247266 -1.630115 -0.066426 25.113105 2.134802 7.281365 -19.686507 178.079100 -0.000000 -20.226500 9.328329 -0.816377 -0.020263 3.813169 2.649699 -39.164835 -2.143858 -4.487177 77.019703 -2.289939 -12.394527 -1.017820 -1.500601 0.000000 -32.697500
0.177990 16.454469 0.107771 -154.261680 67.932592 -139.186641 -11.132825 0.365462 3.901649 -18.608962 -14.145691 -22.062343 -1.583761 -0.134918 23.902333 1.876930 6.301259 -18.430114 178.445999 -0.000000 -19.757600 9.131471 -0.741212 0.167210 3.954036 2.974192 -40.062655 -1.982968 -4.368732 75.353064 -2.333202 -12.588617 -1.149673 -1.538000 -0.000000 -33.482100
0.298021 16.512880 -0.001766 -156.610834 65.447041 -141.049253 -11.263982 0.417644 4.260567 -17.913294 -15.423082 -20.936680 -1.524772 -0.187621 22.768539 1.629954 5.382405 -17.077820 178.779700 0.000000 -19.112800 8.925440 -0.678555 0.335060 4.109246 3.157466 -40.902695 -1.813453 -4.244974 73.499741 -2.403689 -12.934112 -1.201129 -1.617900 0.000000 -34.185200
0.413546 16.573302 -0.112698 -158.686302 62.832580 -142.640605 -11.401651 0.474756 4.617555 -17.199148 -16.728446 -19.847130 -1.454193 -0.223090 21.709259 1.396998 4.536166 -15.631983 179.076799 -0.000000 -18.320000 8.712024 -0.629741 0.480418 4.274044 3.225704 -41.652589 -1.634703 -4.117774 71.468769 -2.497385 -13.400153 -1.239988 -1.724500 0.000000 -34.671601
0.524251 16.635261 -0.224600 -160.507918 60.126423 -144.000563 -11.545371 0.536549 4.960814 -16.475946 -18.037317 -18.772839 -1.373542 -0.240180 20.721824 1.180113 3.766138 -14.095641 179.335800 -0.000000 -17.411800 8.492790 -0.596231 0.602129 4.445014 3.205349 -42.279672 -1.444705 -3.987734 69.260885 -2.606725 -13.932426 -1.323032 -1.838500 -0.000000 -34.878501
0.630202 16.698239 -0.337098 -162.100361 57.366670 -145.170818 -11.693141 0.603408 5.281838 -15.758072 -19.332676 -17.693150 -1.284725 -0.238336 19.802055 0.981237 3.074104 -12.472528 179.556500 0.000000 -16.424900 8.269884 -0.578801 0.700671 4.615860 3.119626 -42.755361 -1.240810 -3.854338 66.870733 -2.721305 -14.460428 -1.488168 -1.939400 0.000001 -34.804000
0.731932 16.761637 -0.449904 -163.488199 54.589509 -146.186732 -11.842608 0.676230 5.575868 -15.057352 -20.601766 -16.596563 -1.189774 -0.217626 18.948137 0.801758 2.457065 -10.770028 179.739600 0.000000 -15.387700 8.045325 -0.577618 0.779069 4.782110 2.990281 -43.060036 -1.020491 -3.715788 64.290480 -2.829671 -14.911272 -1.750226 -2.009899 0.000000 -34.482300
0.830275 16.824855 -0.562952 -164.693007 51.828411 -147.074725 -11.992120 0.756284 5.840305 -14.381667 -21.830618 -15.480929 -1.090821 -0.178680 18.162060 0.642232 1.905279 -9.001824 179.885800 -0.000001 -14.319999 7.820350 -0.592163 0.842399 4.943569 2.839171 -43.183931 -0.781968 -3.568993 61.512178 -2.920800 -15.221512 -2.097249 -2.040300 0.000000 -33.974800
0.926355 16.887252 -0.676243 -165.742981 49.113637 -147.861019 -12.136498 0.845023 6.077122 -13.745010 -23.017507 -14.346860 -0.990085 -0.123517 17.439413 0.503972 1.416851 -7.179190 179.996600 0.000001 -13.221800 7.598746 -0.620332 0.897426 5.091365 2.680448 -43.130353 -0.524965 -3.410794 58.533784 -2.984765 -15.343358 -2.489995 -2.032300 -0.000000 -33.397900
1.021320 16.948156 -0.790143 -166.656245 46.470157 -148.558567 -12.274307 0.943529 6.287057 -13.151060 -24.148486 -13.203565 -0.889367 -0.054378 16.780762 0.386680 0.979733 -5.320497 -179.926600 -0.000000 -12.077100 7.381843 -0.660226 0.951349 5.227481 2.530833 -42.910331 -0.250434 -3.237141 55.357543 -3.014793 -15.257052 -2.871331 -1.998600 -0.000001 -32.885800
1.116303 17.006940 -0.905073 -167.455667 43.918277 -149.180141 -12.401367 1.052722 6.473995 -12.608581 -25.217313 -12.061849 -0.790420 0.025315 16.180555 0.290449 0.589703 -3.440409 -179.881700 -0.000000 -10.862900 7.173611 -0.709175 1.012393 5.346961 2.399227 -42.547851 0.039073 -3.044922 51.998031 -3.006590 -14.964517 -3.177502 -1.957500 -0.000000 -32.589800
